<svg xmlns="http://www.w3.org/2000/svg" width="25.008" height="28.204" viewBox="0 0 25.008 28.204">
  <path id="前面オブジェクトで型抜き_1" data-name="前面オブジェクトで型抜き 1" d="M14,35.2A13.9,13.9,0,0,1,6.785,33.19h8.848a14.228,14.228,0,0,0,8.847-2.739A13.97,13.97,0,0,1,14,35.2ZM4.822,31.752h0a14.17,14.17,0,0,1,0-21.3Zm10.54-3.117H10.33V13.771h5.032a8.094,8.094,0,0,1,5.682,1.994,7.233,7.233,0,0,1,2.138,5.439,7.234,7.234,0,0,1-2.138,5.439,8.093,8.093,0,0,1-5.682,1.99ZM25.007,12.39a13.9,13.9,0,0,0-9.373-3.174H6.463a13.932,13.932,0,0,1,13.76-.749,14.157,14.157,0,0,1,4.785,3.922Z" transform="translate(0 -7)" fill="#fff"/>
</svg>
